<?xml version="1.0" standalone="no"?>
<!DOCTYPE svg PUBLIC "-//W3C//DTD SVG 20010904//EN"
 "http://www.w3.org/TR/2001/REC-SVG-20010904/DTD/svg10.dtd">
<svg version="1.0" xmlns="http://www.w3.org/2000/svg"
 width="369.000000pt" height="369.000000pt" viewBox="0 0 369.000000 369.000000"
 preserveAspectRatio="xMidYMid meet">
<metadata>
Created by potrace 1.14, written by Peter Selinger 2001-2017
</metadata>
<g transform="translate(0.000000,369.000000) scale(0.100000,-0.100000)"
fill="#000000" stroke="none">
<path d="M1190 2915 l0 -775 55 0 55 0 0 775 0 775 -55 0 -55 0 0 -775z"/>
<path d="M2344 3515 l1 -175 55 0 55 0 0 173 0 172 -56 3 -57 3 2 -176z"/>
<path d="M1680 3574 c0 -58 5 -114 10 -125 15 -27 60 -26 60 2 0 11 -4 17 -10
14 -11 -7 -11 -7 -15 115 -3 103 -1 95 -25 97 -19 2 -20 -4 -20 -103z"/>
<path d="M1977 3674 c-4 -4 -7 -16 -7 -26 0 -13 7 -18 26 -18 21 0 25 4 22 22
-3 23 -27 35 -41 22z"/>
<path d="M1506 3662 c-9 -2 -16 -13 -17 -25 -1 -21 0 -184 1 -199 0 -5 36 -8
79 -8 70 0 79 2 77 18 -2 13 -15 18 -57 22 -51 5 -54 7 -55 33 -1 26 1 27 48
27 42 0 49 3 46 18 -2 13 -15 18 -49 20 -42 3 -46 5 -46 27 0 26 2 27 70 27
29 0 37 3 37 18 0 15 -10 19 -59 22 -32 1 -66 2 -75 0z"/>
<path d="M1774 3603 c-8 -3 -1 -32 20 -86 30 -76 35 -82 61 -82 26 0 31 6 56
75 33 89 34 98 12 96 -24 -1 -30 -11 -49 -76 l-17 -55 -24 66 c-23 62 -32 71
-59 62z"/>
<path d="M1976 3602 c-3 -3 -6 -43 -6 -89 0 -80 1 -83 23 -83 23 0 24 2 23 87
-1 73 -4 86 -18 89 -9 1 -19 -1 -22 -4z"/>
<path d="M2070 3519 c0 -82 1 -89 20 -89 17 0 20 7 20 53 0 60 17 91 46 85 16
-3 19 -13 22 -71 3 -64 4 -68 25 -65 20 3 22 9 23 63 1 59 -9 93 -30 107 -19
13 -49 9 -68 -9 -15 -13 -18 -13 -18 -2 0 8 -9 15 -20 16 -19 2 -20 -4 -20
-88z"/>
<path d="M730 3277 c-19 -9 -25 -21 -27 -47 -5 -103 -3 -2378 2 -2392 13 -34
63 -43 250 -43 l180 0 0 55 0 55 -163 0 -162 0 0 536 0 537 741 0 c407 0 743
2 746 6 4 3 7 26 7 51 1 32 -3 46 -14 49 -8 3 -332 4 -720 5 -388 0 -717 0
-732 0 l-28 1 0 543 0 542 148 2 c81 1 155 2 165 2 14 1 17 11 17 55 l0 54
-192 1 c-139 1 -200 -3 -218 -12z"/>
<path d="M1352 3233 l3 -55 794 -1 795 0 18 23 c20 25 16 57 -11 77 -11 8
-223 11 -809 11 l-793 0 3 -55z"/>
<path d="M2349 3108 c-1 -2 -2 -490 -3 -1086 l-1 -1083 55 3 55 3 0 1080 0
1080 -52 3 c-29 2 -54 2 -54 0z"/>
<path d="M2499 2077 c-3 -31 0 -89 4 -93 4 -5 267 -8 399 -5 63 1 88 17 88 56
0 49 -26 54 -267 54 -164 0 -223 -4 -224 -12z"/>
<path d="M1192 1103 l3 -837 26 -15 c24 -13 29 -13 53 2 l26 17 0 834 0 833
-55 2 -55 2 2 -838z"/>
<path d="M1350 850 l0 -56 806 1 c783 0 806 1 820 20 18 24 18 46 0 70 -14 19
-37 20 -820 20 l-806 1 0 -56z"/>
<path d="M2346 741 c-2 -3 -2 -111 -2 -239 1 -219 3 -235 21 -248 24 -18 46
-18 70 0 19 13 20 29 20 245 1 127 -1 235 -4 239 -7 9 -101 11 -105 3z"/>
<path d="M2080 655 c-15 -17 -5 -35 20 -35 22 0 33 23 17 39 -15 15 -22 14
-37 -4z"/>
<path d="M1534 650 c-17 -7 -20 -15 -17 -47 l3 -39 -53 1 -52 1 0 39 c0 34 -3
40 -22 43 -18 3 -23 -2 -24 -20 0 -26 0 -189 0 -201 1 -5 11 -7 23 -5 19 2 22
9 21 38 -3 61 3 68 55 66 l47 -2 0 -49 c1 -45 3 -50 25 -53 l25 -3 -1 115 c0
64 -2 117 -5 120 -2 2 -13 0 -25 -4z"/>
<path d="M1644 590 c-28 -11 -35 -22 -24 -40 7 -11 11 -11 24 -1 17 14 63 11
58 -4 -2 -5 -20 -16 -40 -23 -50 -17 -63 -36 -50 -73 8 -24 16 -29 42 -29 18
0 38 6 45 13 11 10 14 10 18 0 3 -7 16 -13 29 -13 17 0 24 6 24 20 0 11 -4 20
-10 20 -5 0 -10 24 -10 54 0 45 -4 58 -22 70 -25 18 -52 19 -84 6z m66 -104
c0 -20 -27 -39 -45 -32 -18 7 -20 32 -2 39 24 10 47 7 47 -7z"/>
<path d="M1806 592 c-2 -4 -4 -44 -4 -89 1 -79 2 -83 23 -83 20 0 22 5 24 57
2 61 7 73 37 77 22 3 33 46 12 46 -7 0 -24 -7 -36 -16 -14 -10 -21 -11 -20 -4
3 13 -29 23 -36 12z"/>
<path d="M1947 593 c-4 -3 -7 -44 -7 -90 0 -81 1 -83 24 -83 22 0 23 3 21 55
-2 57 16 89 46 83 8 -2 15 7 17 21 3 21 1 23 -25 17 -15 -4 -31 -12 -34 -18
-4 -5 -9 -3 -12 6 -7 17 -19 21 -30 9z"/>
<path d="M2079 587 c-1 -14 -1 -137 0 -154 1 -7 10 -13 21 -13 20 0 22 6 22
90 0 79 -2 86 -22 87 -11 1 -20 -4 -21 -10z"/>
<path d="M2191 587 c-48 -24 -32 -82 24 -93 26 -5 35 -11 35 -26 0 -17 -4 -19
-27 -13 -15 3 -30 11 -34 16 -3 6 -11 3 -19 -6 -20 -24 5 -45 56 -45 35 0 47
5 60 25 8 13 13 33 10 43 -6 19 -45 42 -71 42 -15 0 -20 21 -9 33 3 3 18 1 32
-4 35 -13 55 6 28 27 -24 17 -53 18 -85 1z"/>
</g>
</svg>
